<svg version="1.1" id="Layer_1" xmlns="http://www.w3.org/2000/svg" xmlns:xlink="http://www.w3.org/1999/xlink" x="0px" y="0px"
	 viewBox="0 0 113 123" enable-background="new 0 0 113 123" xml:space="preserve">
<path fill-rule="evenodd" clip-rule="evenodd" fill="none" stroke-width="5" stroke="#AED36A" stroke-miterlimit="10" d="M103.6,83
	c-4.1,0-7.4-3.1-7.4-6.9V46.6c0-3.8,3.3-6.9,7.4-6.9c4.1,0,7.4,3.1,7.4,6.9v29.5C111,80,107.7,83,103.6,83z M83.3,97.6h-5.7
	c0.2,0.6,0.3,1.2,0.3,1.9v0.4v2.3v11.9c0,3.8-3.3,6.9-7.4,6.9c-4.1,0-7.4-3.1-7.4-6.9v-11.9v-2.3v-0.4c0-0.7,0.1-1.3,0.3-1.9H49.6
	c0.2,0.6,0.3,1.2,0.3,1.9v0.4v2.3v11.9c0,3.8-3.3,6.9-7.4,6.9c-4.1,0-7.4-3.1-7.4-6.9v-11.9v-2.3v-0.4c0-0.7,0.1-1.3,0.3-1.9h-5.7
	c-4.3,0-7.8-3.3-7.8-7.3V50.1v-4.7v-5.7h0.5h68.3h0.5v5.7v4.7v40.2C91.2,94.3,87.7,97.6,83.3,97.6z M39.4,12.1l-1.4-1.9l-1.4-1.9
	l-3.1-4.3c-0.4-0.5-0.2-1.2,0.3-1.6c0.6-0.4,1.3-0.2,1.7,0.3L39,7.3l1.4,1.9l1.4,2c4.5-1.6,9.5-2.5,14.7-2.5
	c5.3,0,10.3,0.9,14.7,2.5l1.4-2L74,7.3l3.3-4.6c0.4-0.5,1.1-0.7,1.7-0.3c0.6,0.4,0.7,1.1,0.3,1.6l-3.1,4.3L75,10.2l-1.4,1.9
	c10.5,4.5,17.6,13.2,17.6,23H21.8C21.8,25.3,28.9,16.7,39.4,12.1z M71.4,25.9c2.1,0,3.7-1.5,3.7-3.5c0-1.9-1.7-3.4-3.7-3.4
	c-2.1,0-3.7,1.5-3.7,3.4C67.7,24.4,69.3,25.9,71.4,25.9z M41.6,25.9c2.1,0,3.7-1.5,3.7-3.5c0-1.9-1.7-3.4-3.7-3.4
	c-2.1,0-3.7,1.5-3.7,3.4C37.9,24.4,39.6,25.9,41.6,25.9z M9.4,83C5.3,83,2,80,2,76.1V46.6c0-3.8,3.3-6.9,7.4-6.9
	c4.1,0,7.4,3.1,7.4,6.9v29.5C16.9,80,13.5,83,9.4,83z"/>
</svg>
