<svg version="1.1" id="Layer_1" xmlns="http://www.w3.org/2000/svg" xmlns:xlink="http://www.w3.org/1999/xlink" x="0px" y="0px"
	 viewBox="0 0 82 156" enable-background="new 0 0 82 156" xml:space="preserve">
<path fill-rule="evenodd" clip-rule="evenodd" fill="none" stroke-width="2.5" stroke="#7CBB00" stroke-miterlimit="10" d="M80.4,155H2"/>
<path fill-rule="evenodd" clip-rule="evenodd" fill="none" stroke-width="2.5" stroke="#7CBB00" stroke-miterlimit="10" d="M21.3,93.2h38.6"/>
<path fill-rule="evenodd" clip-rule="evenodd" fill="none" stroke-width="2.5" stroke="#7CBB00" stroke-miterlimit="10" d="M63.9,119.7v34.9"/>
<path fill-rule="evenodd" clip-rule="evenodd" fill="none" stroke-width="2.5" stroke="#7CBB00" stroke-miterlimit="10" d="M17.9,119.3l0,35.4"/>
<path fill-rule="evenodd" clip-rule="evenodd" fill="none" stroke-width="2.5" stroke="#7CBB00" stroke-miterlimit="10" d="M27.9,63.8h25.5
	C53.4,63.8,42.1,78.1,27.9,63.8z"/>
<path fill-rule="evenodd" clip-rule="evenodd" fill="none" stroke-width="2.5" stroke="#7CBB00" stroke-miterlimit="10" d="M51.5,40.7
	c1,0,1.9,0.8,1.9,1.9c0,1-0.8,1.9-1.9,1.9c-1,0-1.9-0.8-1.9-1.9C49.7,41.6,50.5,40.7,51.5,40.7z"/>
<path fill-rule="evenodd" clip-rule="evenodd" fill="none" stroke-width="2.5" stroke="#7CBB00" stroke-miterlimit="10" d="M29.1,40.7
	c1,0,1.9,0.8,1.9,1.9c0,1-0.8,1.9-1.9,1.9s-1.9-0.8-1.9-1.9C27.3,41.6,28.1,40.7,29.1,40.7z"/>
<path fill-rule="evenodd" clip-rule="evenodd" fill="none" stroke-width="2.5" stroke="#7CBB00" stroke-miterlimit="10" d="M58,34.9
	c0-6.5-13.2-6.3-13.2,0s0,18.9,0,18.9c-1.2,1.6-4.2,1.3-4.2,1.3"/>
<path fill-rule="evenodd" clip-rule="evenodd" fill="none" stroke-width="2.5" stroke="#7CBB00" stroke-miterlimit="10" d="M23.5,35.1
	c0-6.5,13.7-6.3,13.7,0c0,6.3,0,18.7,0,18.7c1.2,1.6,4.6,1.2,4.6,1.2"/>
<path fill-rule="evenodd" clip-rule="evenodd" fill="none" stroke-width="2.5" stroke="#7CBB00" stroke-miterlimit="10" d="M24.1,19.5
	c0,0,11.6,4.3,17.1,4.3s17.2-4.3,17.2-4.3c3.4,0,6.2,2.8,6.2,6.2v38.7c0,3.4-0.8,11-4.1,14.3c-3.3,3.4-13.9,3.1-19.3,3.1
	c-5.5,0-16.4,0.4-19.9-3.1c-3.4-3.4-3.4-10.9-3.4-14.3V25.7C17.9,22.3,20.7,19.5,24.1,19.5z"/>
<path fill-rule="evenodd" clip-rule="evenodd" fill="none" stroke-width="2.5" stroke="#7CBB00" stroke-miterlimit="10" d="M17.9,42.6
	c0,0-5.3-11.1-5.3-20.2c0-9.1,7.6-10.4,7.6-10.4s7.9-10.3,21-10"/>
<path fill-rule="evenodd" clip-rule="evenodd" fill="none" stroke-width="2.5" stroke="#7CBB00" stroke-miterlimit="10" d="M64.7,41.2
	c0,0,4.5-9.7,4.5-18.9c0-9.1-7.5-10.4-7.5-10.4s-7.6-10.3-20.5-10"/>
<path fill-rule="evenodd" clip-rule="evenodd" fill="none" stroke-width="2.5" stroke="#7CBB00" stroke-miterlimit="10" d="M41.8,55.7c0,0,9.7,0,12.8,0
	c3.2,0,7.7,4.2,9.9,6.5"/>
<path fill-rule="evenodd" clip-rule="evenodd" fill="none" stroke-width="2.5" stroke="#7CBB00" stroke-miterlimit="10" d="M41.8,55.7
	c0,0-10.8,0-13.7,0s-8.2,3.8-10.2,6.2"/>
<path fill-rule="evenodd" clip-rule="evenodd" fill="none" stroke-width="2.5" stroke="#7CBB00" stroke-miterlimit="10" d="M40.6,81.9
	c16.7,0,19.9,0.4,19.9,5.9s-3.5,4.8-20.2,4.8C23.5,92.6,20,94,20,87.9S23.8,81.9,40.6,81.9z"/>
<path fill-rule="evenodd" clip-rule="evenodd" fill="none" stroke-width="2.5" stroke="#7CBB00" stroke-linecap="round" stroke-miterlimit="10" d="
	M80.4,155c0,0,0.4-38.1-0.9-41c-0.9-7.2-5.7-13.7-12-17.5c-2.3-1.4-4.8-3-7.7-3.4"/>
<path fill-rule="evenodd" clip-rule="evenodd" fill="none" stroke-width="2.5" stroke="#7CBB00" stroke-linecap="round" stroke-miterlimit="10" d="
	M2,155c0,0-0.7-38.5,0.5-41.3c0.9-7.2,5.6-13.7,11.9-17.5c2.3-1.4,5-2.7,7.9-3"/>
<path fill-rule="evenodd" clip-rule="evenodd" fill="none" stroke-width="2.5" stroke="#7CBB00" stroke-miterlimit="10" d="M17.6,41.2
	c-4.9-4.6-9.1,9.6,0,13.8"/>
<path fill-rule="evenodd" clip-rule="evenodd" fill="none" stroke-width="2.5" stroke="#7CBB00" stroke-miterlimit="10" d="M64.6,40.7
	c4.9-4.7,9.4,10.4,0.3,14.7"/>
</svg>
