<svg version="1.1" id="Layer_1" xmlns="http://www.w3.org/2000/svg" xmlns:xlink="http://www.w3.org/1999/xlink" x="0px" y="0px"
	 viewBox="0 0 200 200" enable-background="new 0 0 200 200" xml:space="preserve">
<path style="fill:#00A1F1" fill-rule="evenodd" clip-rule="evenodd" d="M127.5,102.3l-11,9c-0.7,0.7-1.9,0.7-2.6,0c-0.7-0.7-0.7-1.9,0-2.6l9.5-7.8
	l-9.5-7.8c-0.7-0.7-0.7-1.9,0-2.6c0.7-0.7,1.9-0.7,2.6,0l11,9c0.4,0.4,0.5,0.9,0.5,1.4C128,101.4,127.8,101.9,127.5,102.3z
	 M91,123.8c-0.5,0.9-1.3,1-2.5,0.7c-1-0.3-1.2-1.6-0.7-2.5l22.9-45c0.5-0.9,1.6-1.2,2.5-0.7c0.9,0.5,1.2,1.6,0.7,2.5L91,123.8z
	 M87.1,111.3c-0.7,0.7-1.9,0.7-2.6,0l-11-9c-0.4-0.4-0.5-0.9-0.5-1.4c0-0.5,0.1-1,0.5-1.4l11-9c0.7-0.7,1.9-0.7,2.6,0
	c0.7,0.7,0.7,1.9,0,2.6l-9.5,7.8l9.5,7.8C87.9,109.5,87.9,110.6,87.1,111.3z"/>
</svg>
