<svg version="1.1" id="Layer_1" xmlns="http://www.w3.org/2000/svg" xmlns:xlink="http://www.w3.org/1999/xlink" x="0px" y="0px"
	 viewBox="0 0 132 125" enable-background="new 0 0 132 125" xml:space="preserve">
<path fill-rule="evenodd" clip-rule="evenodd" fill="none" stroke-width="5" stroke="#50BCF2" stroke-miterlimit="10" d="M127.3,77.3H113
	c-0.2-0.8-0.5-1.6-0.9-2.3c-0.4-0.7-1.5-2.8-2.9-5.5c-2-3.8-4.8-9.3-7.9-15.1h26c1.5,0,2.7,1.2,2.7,2.7v17.5
	C130,76.1,128.8,77.3,127.3,77.3z M101.7,66.8c0.2,0.4,0.4,0.7,0.6,1.1c0,0.1,0.1,0.1,0.1,0.2c2.4,4.5,4.2,8,4.9,9.3
	c0.1,0.1,0.1,0.2,0.2,0.3c1.9,3.5-1.8,6.3-3.9,7.2c-2.1,0.9-3.3,1.7-6.3,0.2c-3.1-1.6-18.5-37.3-22.4-46.6
	C70.8,29,58.9,4.2,62.8,2.3c2.7-1.4,12.6,18.2,19.9,29.9c4.2,6.7,11,19.4,16.5,29.8c0.1,0.1,0.1,0.3,0.2,0.4
	c0.2,0.5,0.5,0.9,0.7,1.4c0.1,0.1,0.1,0.3,0.2,0.4c0.2,0.4,0.4,0.8,0.6,1.2c0.1,0.2,0.2,0.5,0.4,0.7
	C101.4,66.3,101.6,66.5,101.7,66.8z M65.5,41.2l-10.8,19l-9.8,17.1l-15.1,26.5c-0.8,1.4-2.6,1.9-4,1.1l-7.7-4.5
	c-1.4-0.8-1.9-2.6-1.1-4.1l10.9-19.1l13-22.8l11.8-20.7c0.8-1.4,2.6-1.9,4-1.1l7.7,4.4C65.8,37.9,66.3,39.8,65.5,41.2z M4.7,77.3
	c-1.5,0-2.7-1.2-2.7-2.7V57.2c0-1.5,1.2-2.7,2.7-2.7h29.9l-13,22.8H4.7z M15.5,103.9l7.7,4.5c1.4,0.8,1.5,2.3,0.1,3.2l-10,6.8
	c-1.3,0.9-2.3,0.3-2.1-1.3l1.3-11.7C12.8,103.8,14.1,103.1,15.5,103.9z M75.9,54.5c4.6,10.4,8,17.7,10.5,22.8H51.1l13-22.8H75.9z
	 M103.7,89.8l4.4-2.3c1.6-0.8,3.5-0.1,4.3,1.5l3.7,7.1c0.8,1.6,0.3,3.7-1.2,4.6l-3.2,1.9c-1.5,0.9-3.5,0.4-4.5-1.1l-4.6-7.4
	C101.7,92.5,102.2,90.6,103.7,89.8z M126.2,122.6c-1-3.1-8.4-3.3-11.7-8.1c-3.3-4.7-0.6-7.1,0.6-8.2
	C128.5,98.7,126.2,122.6,126.2,122.6z"/>
</svg>
