<svg version="1.1" id="Layer_1" xmlns="http://www.w3.org/2000/svg" xmlns:xlink="http://www.w3.org/1999/xlink" x="0px" y="0px"
	 viewBox="0 0 79 155" enable-background="new 0 0 79 155" xml:space="preserve">
<path fill-rule="evenodd" clip-rule="evenodd" fill="none" stroke-width="2.5" stroke="#881DA3" stroke-miterlimit="10" d="M78.3,154.3H1"/>
<path fill-rule="evenodd" clip-rule="evenodd" fill="none" stroke-width="2.5" stroke="#881DA3" stroke-miterlimit="10" d="M39,109.8l-6.1,31.9"/>
<path fill-rule="evenodd" clip-rule="evenodd" fill="none" stroke-width="2.5" stroke="#881DA3" stroke-miterlimit="10" d="M39,109.8l7.4,31.6"/>
<path fill-rule="evenodd" clip-rule="evenodd" fill="none" stroke-width="2.5" stroke="#881DA3" stroke-miterlimit="10" d="M32.3,99.9h13.5"/>
<path fill-rule="evenodd" clip-rule="evenodd" fill="none" stroke-width="2.5" stroke="#881DA3" stroke-miterlimit="10" d="M34.8,75.2
	c0.8-0.9,2.7-2.5,7.4-0.6"/>
<path fill-rule="evenodd" clip-rule="evenodd" fill="none" stroke-width="2.5" stroke="#881DA3" stroke-miterlimit="10" d="M35,104.5l4,5.3"/>
<path fill-rule="evenodd" clip-rule="evenodd" fill="none" stroke-width="2.5" stroke="#881DA3" stroke-miterlimit="10" d="M29,83.8
	c-1.2-0.5-6.9-1.2-8.3,4.4c-3,11.9,5.4,22.2,5.4,22.2s7.1-5.5,9.4-3.1C35,100.1,28.8,99.9,29,83.8z"/>
<path fill-rule="evenodd" clip-rule="evenodd" fill="none" stroke-width="2.5" stroke="#881DA3" stroke-miterlimit="10" d="M42.8,104.3l-3.8,5.4"/>
<path fill-rule="evenodd" clip-rule="evenodd" fill="none" stroke-width="2.5" stroke="#881DA3" stroke-miterlimit="10" d="M49.1,84.3
	c1.3-0.5,7-1.6,8.5,4c3.2,11.8-5.7,22.1-5.7,22.1s-7.4-5.5-9.8-3.1C42.8,100.1,49.3,100.3,49.1,84.3z"/>
<path fill-rule="evenodd" clip-rule="evenodd" fill="none" stroke-width="2.5" stroke="#881DA3" stroke-miterlimit="10" d="M62.1,120v34.3"/>
<path fill-rule="evenodd" clip-rule="evenodd" fill="none" stroke-width="2.5" stroke="#881DA3" stroke-miterlimit="10" d="M16.7,120.2v34.1"/>
<path fill-rule="evenodd" clip-rule="evenodd" fill="none" stroke-width="2.5" stroke="#881DA3" stroke-miterlimit="10" d="M26.5,64.7h25.2
	C51.7,64.7,40.5,78.8,26.5,64.7z"/>
<path fill-rule="evenodd" clip-rule="evenodd" fill="none" stroke-width="2.5" stroke="#881DA3" stroke-miterlimit="10" d="M49.9,41.8
	c1,0,1.8,0.8,1.8,1.9c0,1-0.8,1.9-1.8,1.9S48,44.7,48,43.7C48,42.6,48.9,41.8,49.9,41.8z"/>
<path fill-rule="evenodd" clip-rule="evenodd" fill="none" stroke-width="2.5" stroke="#881DA3" stroke-miterlimit="10" d="M27.8,41.8
	c1,0,1.8,0.8,1.8,1.9c0,1-0.8,1.9-1.8,1.9c-1,0-1.8-0.8-1.8-1.9C25.9,42.6,26.8,41.8,27.8,41.8z"/>
<path fill-rule="evenodd" clip-rule="evenodd" fill="none" stroke-width="2.5" stroke="#881DA3" stroke-miterlimit="10" d="M56.6,36.3H43.1
	c0,0,0.1,17,0,18.5c-0.9,0.9-3.7,1.2-3.7,1.2"/>
<path fill-rule="evenodd" clip-rule="evenodd" fill="none" stroke-width="2.5" stroke="#881DA3" stroke-miterlimit="10" d="M22.2,36.3h12.5v18.5
	c1.2,1.5,4.7,1.2,4.7,1.2"/>
<path fill-rule="evenodd" clip-rule="evenodd" fill="none" stroke-width="2.5" stroke="#881DA3" stroke-miterlimit="10" d="M22.9,20.8h33.8
	c3.4,0,6.1,2.8,6.1,6.2v38.3c0,3.4-8.9,18.5-12.3,18.5c0,0-5.3,1.9-10.7,1.9c-5.4,0-10.8-1.9-10.8-1.9c-3.4,0-12.3-15.1-12.3-18.5
	V27C16.7,23.6,19.5,20.8,22.9,20.8z"/>
<path fill-rule="evenodd" clip-rule="evenodd" fill="none" stroke-width="2.5" stroke="#881DA3" stroke-width="0.5" stroke-miterlimit="10" d="
	M43.4,41.5c0,0,0,0.7,0,4c0,4.3,15.3,4.3,15.3,0c0-4.4,0-4.4,0-4.4"/>
<path fill-rule="evenodd" clip-rule="evenodd" fill="none" stroke-width="2.5" stroke="#881DA3" stroke-width="0.5" stroke-miterlimit="10" d="
	M19.4,41.8c0,0,0,0.3,0,3.7c0,4.3,15.3,4.3,15.3,0c0-3.8,0-3.7,0-3.7"/>
<path fill-rule="evenodd" clip-rule="evenodd" fill="none" stroke-width="2.5" stroke="#881DA3" stroke-miterlimit="10" d="M17,41.5l0-0.3l46-0.3l0,0.3
	L17,41.5z"/>
<path fill-rule="evenodd" clip-rule="evenodd" fill="none" stroke-width="2.5" stroke="#881DA3" stroke-linecap="round" stroke-miterlimit="10" d="
	M62.8,42.2c0,0,4.5-9.6,4.5-18.6c0-9-24.1-20.2-24.1-20.2l-3.7,0"/>
<path fill-rule="evenodd" clip-rule="evenodd" fill="none" stroke-width="2.5" stroke="#881DA3" stroke-linecap="round" stroke-miterlimit="10" d="
	M16.4,42.2c0,0-5.8-9.5-5.8-18.6S36,3.4,36,3.4h3.5"/>
<path fill-rule="evenodd" clip-rule="evenodd" fill="none" stroke-width="2.5" stroke="#881DA3" stroke-linecap="round" stroke-miterlimit="10" d="
	M78.1,154.3c0,0,0.6-37.1-0.6-39.9c-0.9-7.1-5.6-13.6-11.8-17.3c-2.2-1.3-4.1-2-7-2.4"/>
<path fill-rule="evenodd" clip-rule="evenodd" fill="none" stroke-width="2.5" stroke="#881DA3" stroke-linecap="round" stroke-miterlimit="10" d="
	M1.5,154.3c0,0-1.2-37.5,0-40.3c0.9-7.1,5.5-13.6,11.7-17.3c2.2-1.3,4-2,6.8-2.4"/>
<path fill-rule="evenodd" clip-rule="evenodd" fill="none" stroke-width="2.5" stroke="#881DA3" stroke-miterlimit="10" d="M16.4,41.5
	c-4.9-4.6-8.9,10.4,0,14.5"/>
<path fill-rule="evenodd" clip-rule="evenodd" fill="none" stroke-width="2.5" stroke="#881DA3" stroke-miterlimit="10" d="M62.8,41.8
	c4.9-4.6,9.2,10.3,0.3,14.5"/>
</svg>
