<svg version="1.1" id="Layer_1" xmlns="http://www.w3.org/2000/svg" xmlns:xlink="http://www.w3.org/1999/xlink" x="0px" y="0px"
	 viewBox="0 0 200 200" enable-background="new 0 0 200 200" xml:space="preserve">
<path style="fill:#7CBB00" d="M123.2,104.7c-0.6-0.7-1-1-1.1-1.7c1.1-0.6,2.2-2.8,2.2-3.5c-0.1-4.7-4.6-5.7-4.6-5.7s0,0-13.3,0c-1-0.1-0.3-2.8,0.3-3.7
	c2.3-4.1,3.7-7.9,3.7-9.8c-0.8-9.5-7.3-7.9-7.6-6.9c-0.1,9.7-2.3,11.9-4.8,13.5c-2.5,1.7-2.8,3.6-5.7,10.2c-2.9,6.6-6.1,4.4-6.1,4.4
	s0.1,2.1,0.1,21.6c16.3,3,23.3,2.6,27.6,2.2c4.3-0.4,5.7-3.3,5.7-4.8c0-1.8,0.6-2.8,1.2-3.2c3-2.5,2.1-3.3,1.2-5.1
	c-0.8-1.8-0.6-2.4,0.8-3.6C125.7,107.5,123.8,105.4,123.2,104.7z M83.4,101H75c-0.5,0-0.8,0.4-0.8,0.8v22c0,0.5,0.4,0.8,0.8,0.8h8.4
	c0.5,0,0.8-0.4,0.8-0.8v-22C84.3,101.4,83.9,101,83.4,101z"/>
</svg>
