<svg version="1.1" id="Capa_1" xmlns:sketch="http://www.bohemiancoding.com/sketch/ns"
	 xmlns="http://www.w3.org/2000/svg" xmlns:xlink="http://www.w3.org/1999/xlink" x="0px" y="0px" viewBox="0 0 255.1 141.7"
	 enable-background="new 0 0 255.1 141.7" xml:space="preserve">
<title>icon 55 document text</title>
<desc>Created with Sketch.</desc>
<g>
	<path style="fill:#F65314" d="M149.7,47.6h22.1l-26.6-29.9v25.6C145.3,45.9,147.5,47.6,149.7,47.6z"/>
	<path style="fill:#F65314" d="M140.8,43.3V17.7H96.6c-4.9,0-8.9,3.8-8.9,8.5v98.1c0,4.7,4,8.5,8.9,8.5H163c4.9,0,8.9-3.8,8.9-8.5V51.8h-22.1
		C144.8,51.8,140.8,48,140.8,43.3z M101,34.8h31v4.3h-31V34.8z M101,47.6h31v4.3h-31V47.6z M158.6,115.8H101v-4.3h57.6V115.8z
		 M158.6,103H101v-4.3h57.6V103z M158.6,90.2H101V86h57.6V90.2z M158.6,77.4H101v-4.3h57.6V77.4z M158.6,64.6H101v-4.3h57.6V64.6z"
		/>
</g>
</svg>
