<svg version="1.1" id="Layer_1" xmlns="http://www.w3.org/2000/svg" xmlns:xlink="http://www.w3.org/1999/xlink" x="0px" y="0px"
	 viewBox="-404 -194.6 663 604" enable-background="new -404 -194.6 663 604" xml:space="preserve">
<path style="fill:#FFBB00" d="M-82.2,129.7h42.5v148.7c0,47.6-37.3,85-85,85s-85-37.4-85-85c0-11.8,9.5-21.2,21.2-21.2s21.2,9.5,21.2,21.2
	c0,24.2,18.3,42.5,42.5,42.5s42.5-18.3,42.5-42.5V129.7z M-39.8-103.1v-45.6h-42.5v45.6C-212.6-93.2-316,6.7-316,129.7l12.7-6.4
	c44.6-21.2,97.7-21.2,142.4,0l14.9,6.4l14.9-6.4c44.6-23.4,97.7-23.4,142.4,0l12.7,6.4l14.9-6.4c44.6-23.4,97.7-23.4,142.4,0
	l12.7,6.4C194,6.7,90.6-93.2-39.8-103.1z"/>
</svg>
