<svg version="1.1" id="Layer_1" xmlns="http://www.w3.org/2000/svg" xmlns:xlink="http://www.w3.org/1999/xlink" x="0px" y="0px"
	 viewBox="0 0 134 125" enable-background="new 0 0 134 125" xml:space="preserve">
<path fill-rule="evenodd" clip-rule="evenodd" fill="none" stroke-width="5" stroke="#FFBB00" stroke-miterlimit="10" d="M75.5,4L75.5,4
	c0,0,46.6,34.2,37.3,82.3c16.2,19.1,6.7,34.5,6.7,34.5s-1.3-14.9-22.6-10.6c-8,5.3-11.4,8-22.6,9.3C67,117.6,30.5,124,5,77
	c38.3,28.9,65.4,16.2,66.1,12.6C51.3,77.6,16.6,23,17,22.6c0,0,42.1,39.8,46.6,39.8C62,59.8,28.9,13.3,28.9,13.3
	s54.8,56.6,58.5,53.1C96.4,29.9,75.5,4,75.5,4z"/>
</svg>
