<svg version="1.1" id="Layer_1" xmlns="http://www.w3.org/2000/svg" xmlns:xlink="http://www.w3.org/1999/xlink" x="0px" y="0px"
	 viewBox="0 0 80 153" enable-background="new 0 0 80 153" xml:space="preserve">
<path fill-rule="evenodd" clip-rule="evenodd" fill="none" stroke-width="2.5" stroke="#FFBB00" stroke-linecap="round" stroke-miterlimit="10" d="
	M77.8,151.7H2.1"/>
<path fill-rule="evenodd" clip-rule="evenodd" fill="none" stroke-width="2.5" stroke="#FFBB00" stroke-linecap="round" stroke-miterlimit="10" d="
	M50.8,98.7l-11.2,15.9"/>
<path fill-rule="evenodd" clip-rule="evenodd" fill="none" stroke-width="2.5" stroke="#FFBB00" stroke-linecap="round" stroke-miterlimit="10" d="
	M28.4,98.7l11.1,15.8"/>
<path fill-rule="evenodd" clip-rule="evenodd" fill="none" stroke-width="2.5" stroke="#FFBB00" stroke-miterlimit="10" d="M29.5,82.3
	c0,0-7.5-1.2-8.5,4.4c-1,5.6,0,14,0,14s6-3.7,8.3-1.3C31.6,101.7,29.5,82.3,29.5,82.3z"/>
<path fill-rule="evenodd" clip-rule="evenodd" fill="none" stroke-width="2.5" stroke="#FFBB00" stroke-miterlimit="10" d="M49.5,82.7
	c0,0,7.6-1.7,8.6,3.9c1,5.6,0,14,0,14s-6.2-3.7-8.5-1.3C47.2,101.7,49.5,82.7,49.5,82.7z"/>
<path fill-rule="evenodd" clip-rule="evenodd" fill="none" stroke-width="2.5" stroke="#FFBB00" stroke-miterlimit="10" d="M62.5,117.9v33.8"/>
<path fill-rule="evenodd" clip-rule="evenodd" fill="none" stroke-width="2.5" stroke="#FFBB00" stroke-miterlimit="10" d="M17.3,118.1v33.2"/>
<path fill-rule="evenodd" clip-rule="evenodd" fill="none" stroke-width="2.5" stroke="#FFBB00" stroke-miterlimit="10" d="M27.1,63.4h25.1
	C52.2,63.4,41,77.3,27.1,63.4z"/>
<path fill-rule="evenodd" clip-rule="evenodd" fill="none" stroke-width="2.5" stroke="#FFBB00" stroke-miterlimit="10" d="M50.3,40.8
	c1,0,1.8,0.8,1.8,1.8c0,1-0.8,1.8-1.8,1.8c-1,0-1.8-0.8-1.8-1.8C48.5,41.7,49.3,40.8,50.3,40.8z"/>
<path fill-rule="evenodd" clip-rule="evenodd" fill="none" stroke-width="2.5" stroke="#FFBB00" stroke-miterlimit="10" d="M28.3,40.8
	c1,0,1.8,0.8,1.8,1.8c0,1-0.8,1.8-1.8,1.8s-1.8-0.8-1.8-1.8C26.5,41.7,27.3,40.8,28.3,40.8z"/>
<path fill-rule="evenodd" clip-rule="evenodd" fill="none" stroke-width="2.5" stroke="#FFBB00" stroke-miterlimit="10" d="M57.1,35.4H43.6
	c0,0-0.1,17.2,0,18.3c-0.9,0.9-3.7,1.2-3.7,1.2"/>
<path fill-rule="evenodd" clip-rule="evenodd" fill="none" stroke-width="2.5" stroke="#FFBB00" stroke-miterlimit="10" d="M22.8,35.4
	c0-7.8,13.5-7.9,13.5,0s0,18.3,0,18.3c1.2,1.5,3.7,1.2,3.7,1.2"/>
<path fill-rule="evenodd" clip-rule="evenodd" fill="none" stroke-width="2.5" stroke="#FFBB00" stroke-miterlimit="10" d="M23.4,20.1h33.7
	c3.4,0,6.1,2.7,6.1,6.1V64c0,3.4-8.9,18.3-12.2,18.3c0,0-5.3,1.8-10.7,1.8c-5.4,0-10.8-1.8-10.8-1.8c-3.4,0-12.2-14.9-12.2-18.3
	V26.2C17.3,22.9,20,20.1,23.4,20.1z"/>
<path fill-rule="evenodd" clip-rule="evenodd" fill="none" stroke-width="2.5" stroke="#FFBB00" stroke-miterlimit="10" d="M16.1,43.3
	c0,0-4.9-11.4-4.9-20.3c0-8.9,7.1-10.9,7.1-10.9l4.9-0.3"/>
<path fill-rule="evenodd" clip-rule="evenodd" fill="none" stroke-width="2.5" stroke="#FFBB00" stroke-miterlimit="10" d="M77.8,151.4
	c0,0,1.2-36.3,0-39c-0.9-7-5.6-13.4-11.8-17.1c-2.2-1.3-4.9-2-7.8-2.3"/>
<path fill-rule="evenodd" clip-rule="evenodd" fill="none" stroke-width="2.5" stroke="#FFBB00" stroke-miterlimit="10" d="M2.1,151.7
	c0,0-1.1-37,0.1-39.7c0.9-7,5.5-13.4,11.7-17.1c2.2-1.3,3.9-2,6.8-2.3"/>
<path fill-rule="evenodd" clip-rule="evenodd" fill="none" stroke-width="2.5" stroke="#FFBB00" stroke-miterlimit="10" d="M62.6,12.2
	c0,0,6.1,1.5,6.1,10.4s-4.9,20.1-4.9,20.1"/>
<path fill-rule="evenodd" clip-rule="evenodd" fill="none" stroke-width="2.5" stroke="#FFBB00" stroke-miterlimit="10" d="M22.2,15.3
	c1-3.5,1.4-11.9,17.1-11.6C55.1,4,62.4,8.4,66.3,2.5c3.8-5.9-4.8,17.8-12.3,17.4c-9.7-0.5-25.6,0.1-28.1,0.2
	C23.3,20.2,21.2,18.7,22.2,15.3z"/>
<path fill-rule="evenodd" clip-rule="evenodd" fill="none" stroke-width="2.5" stroke="#FFBB00" stroke-miterlimit="10" d="M63.2,41.3
	c0,0,12.4,13.9,0.3,13.9"/>
<path fill-rule="evenodd" clip-rule="evenodd" fill="none" stroke-width="2.5" stroke="#FFBB00" stroke-miterlimit="10" d="M17.3,41.3
	c0,0-12.5,14.2,0,14.2"/>
</svg>
